# xmcd CD database file
#
# Track frame offsets:
#	151
#	27305
#	48547
#	64615
#	69461
#	88181
#	106522
#	125239
#	140553
#	165674
#	169679
#	185422
#	204729
#	226238
#	245220
#
# Disc length: 3352 seconds
#
# Revision: 0
# Processed by: cddbd v1.4PL0 Copyright (c) Steve Scherf et al.
# Submitted via: CDex 1.51
#
DISCID=d80d160f
DTITLE=Sweet Jazz trio - Very Swedish
DYEAR=2000
DGENRE=Jazz
TTITLE0=Ack Värmeland du sköna
TTITLE1=Life ca be so sweet
TTITLE2=Bussan lull
TTITLE3=Va dä du
TTITLE4=Jag vet en dejlig rosa
TTITLE5=Elvan
TTITLE6=Danish dream
TTITLE7=Det gåtfulla folket
TTITLE8=Underbart är kort
TTITLE9=Vem kan segla förutan vind
TTITLE10=Södermalm
TTITLE11=Somliga går i trasiga skor
TTITLE12=Jill
TTITLE13=Kristallen den fina
TTITLE14=Elin i hagen
EXTD=YEAR: 2000
EXTT0=
EXTT1=
EXTT2=
EXTT3=
EXTT4=
EXTT5=
EXTT6=
EXTT7=
EXTT8=
EXTT9=
EXTT10=
EXTT11=
EXTT12=
EXTT13=
EXTT14=
PLAYORDER=
